<?xml version="1.0" standalone="no"?>
<!DOCTYPE svg PUBLIC "-//W3C//DTD SVG 20010904//EN"
 "http://www.w3.org/TR/2001/REC-SVG-20010904/DTD/svg10.dtd">
<svg version="1.0" xmlns="http://www.w3.org/2000/svg"
 width="4096.000000pt" height="4096.000000pt" viewBox="0 0 4096.000000 4096.000000"
 preserveAspectRatio="xMidYMid meet">
<metadata>
Created by potrace 1.14, written by Peter Selinger 2001-2017
</metadata>
<g transform="translate(0.000000,4096.000000) scale(0.100000,-0.100000)"
fill="#000000" stroke="none">
<path d="M0 20480 l0 -20480 20480 0 20480 0 0 20480 0 20480 -20480 0 -20480
0 0 -20480z m25607 15005 c50 -12 57 -42 54 -235 -2 -198 6 -248 46 -279 26
-21 32 -21 1040 -21 1117 0 1070 3 1092 -60 7 -20 11 -105 11 -215 0 -110 4
-195 11 -215 19 -53 51 -60 268 -60 114 0 199 -4 214 -11 47 -21 51 -40 52
-254 1 -216 7 -243 54 -265 19 -9 142 -12 486 -11 423 1 463 0 495 -16 19 -10
40 -29 47 -43 10 -19 13 -139 13 -492 0 -327 3 -475 11 -492 22 -47 73 -57
273 -55 196 2 225 -4 245 -48 8 -18 12 -160 12 -482 0 -329 3 -466 12 -491 21
-62 53 -70 269 -70 103 0 198 -4 212 -10 52 -19 51 0 56 -812 l5 -758 28 -27
27 -28 219 -5 c241 -6 244 -6 261 -69 6 -24 10 -767 10 -2115 -1 -1783 -3
-2083 -15 -2112 -23 -56 -57 -64 -260 -64 -195 0 -238 9 -255 55 -6 15 -10
110 -10 213 0 158 -3 192 -18 222 -28 58 -43 61 -273 58 -187 -3 -209 -5 -228
-22 -34 -30 -41 -80 -41 -274 0 -112 -4 -191 -11 -204 -27 -49 12 -48 -1347
-48 -921 0 -1278 3 -1302 11 -52 19 -60 51 -60 262 0 112 -4 197 -11 217 -19
53 -51 60 -264 60 -206 0 -247 -9 -265 -55 -6 -15 -10 -109 -10 -211 0 -192
-7 -232 -45 -264 -14 -12 -62 -16 -234 -20 -119 -3 -222 -9 -230 -14 -34 -22
-41 -72 -41 -289 0 -152 -3 -216 -12 -225 -9 -9 -133 -12 -495 -12 -538 0
-551 -1 -572 -62 -6 -18 -11 -113 -11 -225 0 -217 6 -243 61 -262 22 -7 188
-11 518 -11 366 0 490 -3 499 -12 9 -9 12 -133 12 -499 0 -330 4 -496 11 -518
21 -61 20 -61 532 -61 485 0 516 2 540 44 8 14 14 92 17 233 l5 213 28 27 27
28 455 3 c303 2 468 -1 495 -8 71 -19 75 -35 75 -265 0 -177 2 -204 18 -228
10 -15 29 -32 43 -37 15 -6 216 -10 483 -10 316 0 468 -4 491 -11 53 -19 60
-51 60 -269 0 -220 6 -242 68 -259 20 -6 116 -11 212 -11 192 0 232 9 257 60
16 31 19 944 3 984 -5 14 -21 33 -35 42 -23 15 -69 16 -480 15 -302 -1 -467 2
-494 9 -66 17 -71 37 -71 258 0 113 -4 202 -11 221 -23 65 64 61 -1382 61
-1008 0 -1316 3 -1325 12 -9 9 -12 80 -12 260 0 234 1 248 19 258 29 15 4237
14 4281 -1 52 -19 60 -51 60 -262 0 -112 4 -197 11 -217 19 -53 51 -60 269
-60 221 0 243 -6 259 -68 6 -24 9 -968 8 -2677 -2 -2864 2 -2669 -54 -2694
-15 -7 -100 -11 -214 -11 -217 0 -249 -7 -268 -60 -8 -24 -11 -313 -11 -1035
0 -686 -3 -1012 -11 -1033 -19 -54 -64 -64 -274 -60 -206 3 -232 -3 -252 -62
-9 -26 -12 -287 -12 -1044 -1 -1103 2 -1044 -57 -1066 -14 -6 -111 -10 -215
-10 -207 0 -241 -7 -259 -56 -6 -15 -10 -216 -10 -485 0 -501 -2 -519 -55
-539 -15 -6 -109 -10 -211 -10 -192 0 -232 -7 -264 -45 -12 -14 -16 -62 -20
-229 -3 -116 -9 -219 -14 -229 -19 -40 -56 -47 -255 -47 -104 0 -201 -4 -215
-10 -14 -5 -33 -22 -43 -37 -16 -24 -18 -51 -18 -228 0 -174 -2 -204 -17 -228
-28 -41 -79 -50 -252 -42 -164 8 -219 0 -252 -36 -18 -20 -19 -47 -24 -510
l-5 -489 -28 -27 -27 -28 -213 -5 c-231 -5 -248 -9 -266 -61 -8 -22 -11 -256
-11 -766 0 -823 3 -783 -69 -803 -57 -15 -437 -8 -453 8 -10 10 -13 124 -15
507 -1 393 -4 499 -15 522 -21 44 -61 52 -263 52 -152 1 -185 -2 -215 -17 -56
-27 -60 -45 -60 -260 0 -202 -7 -239 -47 -258 -10 -5 -113 -11 -229 -14 -238
-6 -245 -8 -264 -81 -7 -24 -10 -215 -10 -513 1 -262 -1 -480 -5 -486 -4 -6
-84 -10 -224 -10 -230 0 -272 -6 -294 -44 -8 -14 -14 -96 -17 -253 -3 -127 -9
-235 -13 -240 -5 -4 -113 -10 -240 -13 -160 -3 -239 -9 -254 -18 -35 -20 -43
-73 -43 -292 0 -113 -4 -211 -8 -217 -11 -18 -3717 -19 -3755 -2 -41 19 -47
47 -47 242 0 100 -5 199 -11 219 -18 69 -11 68 -531 69 -255 1 -474 4 -487 8
-13 3 -34 19 -45 34 -20 27 -21 41 -21 230 0 213 -4 234 -48 259 -15 9 -89 15
-234 18 -280 7 -256 -17 -263 263 -3 145 -9 219 -18 234 -25 44 -46 48 -236
46 -100 -2 -196 2 -218 7 -68 19 -72 35 -78 277 -7 281 19 256 -271 263 l-221
5 -24 28 c-13 15 -24 40 -24 55 -4 1008 -2 966 -57 991 -15 7 -96 11 -214 11
-217 0 -249 7 -268 60 -8 24 -11 243 -11 760 0 505 -3 737 -11 759 -18 52 -34
56 -281 61 -167 4 -230 8 -240 18 -11 11 -14 566 -18 2980 -3 1632 -6 2968 -8
2969 -36 34 -59 38 -270 43 l-214 5 -24 28 c-24 28 -24 30 -24 250 0 122 5
229 10 237 8 12 47 15 232 17 132 2 234 7 249 14 45 18 50 46 49 262 0 214 -6
242 -50 264 -38 19 -411 18 -449 -1 -47 -25 -51 -49 -51 -285 0 -166 -3 -221
-13 -229 -7 -7 -98 -13 -222 -17 -190 -5 -213 -4 -245 12 -19 10 -40 29 -47
43 -17 34 -19 921 -2 970 19 53 51 60 269 60 220 0 242 6 259 68 7 23 11 215
11 517 0 361 3 484 12 493 9 9 73 12 225 12 238 0 275 7 294 57 15 37 12 415
-3 448 -21 47 -75 57 -280 53 -200 -3 -228 -10 -248 -64 -6 -14 -10 -121 -10
-239 0 -181 -2 -216 -16 -229 -13 -14 -49 -16 -234 -16 -224 0 -261 5 -276 37
-5 10 -11 240 -14 510 l-5 492 -23 23 c-22 22 -30 23 -248 28 -222 5 -226 5
-245 29 -10 13 -19 33 -20 45 0 11 -1 107 -2 211 -2 137 -6 197 -15 213 -25
44 -66 52 -276 52 -192 0 -195 0 -223 24 l-28 24 0 496 c0 462 1 496 18 513
16 17 55 18 510 23 271 3 500 9 510 14 46 22 47 37 47 530 0 271 4 475 10 490
5 14 21 32 35 42 23 15 69 16 480 15 301 -1 468 2 494 9 73 19 72 10 72 528 0
329 3 467 12 492 21 61 54 70 258 70 186 0 231 -8 252 -44 8 -14 14 -92 17
-233 l5 -213 28 -27 27 -28 1854 -5 c1793 -5 1855 -6 1875 -24 37 -34 44 -79
38 -239 -7 -177 2 -240 41 -265 22 -14 55 -17 223 -18 212 -1 248 -7 268 -50
7 -16 11 -95 11 -213 0 -199 7 -243 44 -264 14 -8 92 -14 233 -17 l213 -5 27
-28 28 -27 3 -493 c2 -417 0 -495 -12 -512 -14 -19 -27 -20 -261 -20 -208 0
-247 2 -255 15 -5 8 -10 111 -10 228 0 242 -6 272 -60 291 -20 7 -105 11 -217
11 -218 0 -246 7 -262 67 -6 21 -11 120 -11 221 0 214 -6 235 -70 252 -23 6
-116 10 -218 9 -191 -1 -221 4 -241 48 -7 15 -11 94 -11 206 0 100 -5 199 -11
219 -19 72 49 68 -1092 68 -1018 0 -1024 0 -1050 -21 -41 -31 -48 -80 -45
-297 1 -108 -1 -203 -5 -209 -6 -10 -117 -13 -498 -13 -547 0 -547 0 -574 -64
-12 -27 -15 -84 -15 -250 0 -203 -1 -216 -19 -226 -12 -6 -112 -10 -254 -10
-206 0 -236 2 -248 17 -11 12 -15 67 -16 234 -3 254 -7 271 -74 289 -26 7
-113 10 -230 8 l-189 -3 -27 -28 -28 -27 0 -220 0 -220 28 -27 27 -28 234 -5
c129 -3 238 -9 243 -13 4 -5 10 -113 13 -240 3 -128 9 -239 13 -249 18 -36 64
-43 270 -41 215 1 237 6 257 59 6 14 10 123 10 243 0 155 3 220 12 229 9 9
133 12 499 12 508 0 538 2 562 44 8 14 14 96 17 253 3 127 9 235 13 240 14 13
416 16 459 3 21 -6 43 -21 50 -33 9 -15 15 -90 18 -234 l5 -213 28 -27 27 -28
765 -5 764 -5 23 -23 c22 -22 23 -30 28 -243 l5 -221 28 -24 c15 -13 40 -24
55 -25 15 0 242 -1 505 -2 412 -2 479 -4 487 -17 15 -23 13 -493 -2 -508 -9
-9 -133 -12 -499 -12 -337 0 -496 -3 -519 -11 -53 -19 -60 -51 -60 -271 0
-215 4 -233 60 -260 32 -16 77 -18 488 -18 475 0 496 2 532 45 12 15 16 62 18
249 2 142 7 236 14 243 8 10 65 13 229 13 120 0 229 4 243 10 14 5 33 21 43
37 16 24 18 53 19 250 0 160 4 227 12 235 17 17 392 24 450 9 78 -22 73 65 72
-1101 0 -764 -3 -1046 -11 -1056 -9 -11 -57 -14 -226 -14 -236 0 -275 -7 -293
-55 -6 -15 -10 -110 -11 -213 -1 -103 -4 -198 -8 -211 -3 -13 -19 -34 -34 -45
-26 -19 -43 -21 -226 -23 -109 -1 -210 -7 -225 -13 -48 -18 -56 -57 -56 -275
l0 -197 -29 -29 -29 -29 -197 0 c-211 0 -252 -8 -276 -52 -10 -18 -13 -138
-13 -520 -1 -394 -4 -500 -14 -510 -10 -10 -66 -13 -235 -13 -198 0 -226 -2
-250 -18 -16 -10 -32 -30 -38 -44 -6 -16 -8 -208 -7 -503 3 -453 4 -479 22
-499 10 -11 35 -25 55 -31 23 -6 409 -10 1064 -10 839 0 1029 -2 1033 -13 2
-7 6 -114 7 -238 2 -123 6 -232 11 -242 19 -40 56 -47 254 -47 113 0 202 -4
221 -11 55 -19 61 -46 61 -257 0 -104 5 -202 10 -218 21 -60 9 -59 554 -62
341 -2 504 -6 513 -14 10 -8 13 -60 13 -225 0 -229 7 -270 50 -293 16 -9 152
-12 502 -11 524 0 517 0 538 57 6 14 10 121 10 238 0 154 3 217 13 229 10 14
43 16 244 19 l233 3 27 28 28 27 3 199 c5 309 13 301 -313 301 l-215 0 -10 26
c-13 34 -13 994 0 1028 l9 25 235 3 236 3 27 28 28 27 3 193 c6 306 10 301
-252 303 -100 1 -200 -3 -224 -8 -74 -18 -77 -28 -78 -285 -1 -161 -5 -227
-14 -238 -10 -12 -49 -15 -225 -15 -223 0 -266 -7 -288 -44 -8 -14 -14 -92
-17 -233 l-5 -213 -28 -27 -27 -28 -213 -5 c-144 -3 -219 -9 -234 -18 -35 -20
-43 -73 -43 -293 0 -158 -3 -209 -13 -217 -9 -7 -92 -12 -235 -13 -252 -1
-263 2 -282 70 -6 22 -10 121 -10 221 1 192 -3 215 -49 239 -12 7 -198 11
-513 11 -284 0 -499 5 -508 10 -12 8 -16 50 -20 242 -3 158 -9 240 -17 254 -7
12 -27 27 -44 33 -22 8 -256 11 -766 11 -824 0 -783 -4 -803 71 -16 59 -9 434
8 451 10 10 75 15 250 19 130 3 238 6 239 7 2 1 11 14 20 29 15 23 19 59 23
241 l5 214 28 24 c28 24 31 24 227 24 109 0 210 -4 224 -10 46 -17 51 -41 56
-267 5 -200 6 -214 26 -234 31 -30 74 -35 286 -29 178 5 189 6 210 28 l23 23
5 1053 c3 580 9 1058 13 1063 5 4 114 10 243 13 l234 5 27 28 28 27 0 1304 c0
1424 3 1344 -58 1366 -17 5 -113 10 -219 10 -198 0 -235 7 -254 47 -5 10 -11
237 -14 505 l-5 487 -23 23 c-22 22 -31 23 -235 28 -222 5 -245 10 -269 53 -8
15 -12 86 -12 222 -1 211 -5 232 -49 257 -15 9 -89 15 -234 18 -281 7 -256
-19 -263 271 l-5 221 -28 24 c-15 13 -40 24 -55 25 -15 0 -601 1 -1302 2
-1380 2 -1304 -1 -1329 54 -7 14 -11 100 -11 212 0 112 -4 201 -11 220 -23 65
61 61 -1352 61 -871 0 -1294 3 -1314 10 -17 6 -35 22 -42 36 -15 34 -16 953 0
987 22 48 40 51 254 52 217 0 245 6 264 54 7 15 12 118 14 246 1 121 6 226 10
233 6 9 63 12 228 12 257 0 281 5 299 67 8 25 10 106 8 234 -3 177 -5 199 -22
218 -30 33 -79 41 -258 41 -189 0 -238 -11 -257 -58 -6 -15 -11 -125 -13 -250
-3 -185 -6 -224 -18 -233 -9 -5 -107 -8 -243 -7 l-229 3 -24 28 -24 28 0 480
0 481 29 29 c18 17 41 29 58 30 15 0 102 0 193 0 184 -1 227 8 248 51 10 22
13 229 12 1035 0 942 1 1010 17 1043 28 56 46 60 260 60 105 0 203 4 218 10
46 18 55 59 55 265 0 188 -8 240 -41 261 -8 5 -112 11 -231 14 l-218 5 -27 28
-28 27 -3 731 c-2 492 1 743 8 769 17 65 37 70 269 70 197 0 200 0 228 -24
l28 -24 5 -491 5 -491 28 -27 27 -28 219 0 c246 0 251 1 271 74 6 23 10 306
10 764 0 491 3 734 10 747 26 49 37 50 535 50 514 0 513 0 534 61 7 19 11 108
11 221 0 169 5 212 26 236 21 26 171 27 3254 25 1752 -1 3195 -5 3207 -8z
m-14779 -9918 c9 -6 11 -23 7 -55 -8 -67 -8 -741 0 -783 11 -61 2 -64 -239
-60 -325 4 -321 9 -314 -325 5 -251 13 -236 -109 -221 -45 5 -104 5 -146 -1
-40 -5 -79 -6 -87 -1 -13 7 -15 58 -12 386 2 213 -1 402 -7 433 -16 95 -23 92
246 94 216 1 232 2 253 21 47 41 52 74 49 294 -2 114 0 211 3 217 8 13 336 13
356 1z m593 -1586 l29 -29 0 -2107 c0 -1826 2 -2110 15 -2141 24 -57 55 -64
277 -64 214 0 228 -3 247 -63 6 -19 10 -104 8 -209 l-2 -178 -28 -27 -27 -28
-453 -2 c-288 -1 -464 2 -485 8 -64 21 -62 -9 -62 802 0 510 -3 744 -11 766
-18 52 -35 56 -266 61 l-213 5 -26 27 -27 26 0 189 c0 103 3 198 7 211 14 42
40 47 263 52 l213 5 27 28 28 27 3 218 c4 317 6 315 -284 306 -175 -6 -221 3
-244 45 -15 30 -15 1482 0 1512 22 40 62 47 230 42 184 -7 251 4 278 45 14 22
18 61 22 240 l5 214 28 24 c28 24 31 24 223 24 l196 0 29 -29z m3771 -1139 c8
-8 10 -157 9 -496 -3 -535 -4 -521 61 -567 31 -22 37 -23 254 -21 147 2 225
-1 229 -8 9 -14 10 -349 1 -357 -4 -4 -111 -7 -239 -8 -267 0 -278 -3 -297
-76 -8 -29 -11 -191 -9 -520 1 -264 -1 -482 -5 -486 -11 -11 -346 -12 -352 -1
-11 17 -6 2540 4 2547 18 11 333 4 344 -7z m595 -3751 c38 -26 43 -54 43 -250
0 -114 4 -201 11 -221 19 -53 51 -60 271 -60 163 0 197 -3 217 -16 54 -39 51
130 51 -2729 0 -1692 3 -2652 9 -2664 24 -44 34 -46 278 -51 193 -4 235 -8
243 -20 6 -9 10 -315 10 -778 l0 -764 -29 -29 -29 -29 -202 0 c-125 0 -209 4
-222 11 -46 25 -48 49 -48 538 0 280 -4 470 -10 486 -18 47 -59 55 -275 55
l-197 0 -29 29 c-16 16 -29 40 -29 53 0 13 -1 228 -3 478 -2 488 -3 496 -54
519 -15 7 -95 11 -212 11 -112 0 -201 4 -220 11 -61 21 -61 20 -61 533 0 271
-4 475 -10 490 -5 14 -22 33 -37 43 -24 16 -48 18 -214 15 -150 -2 -195 0
-224 12 -70 30 -65 -141 -65 2166 0 2295 -5 2136 62 2165 49 21 942 17 975 -4z
m9863 -1087 c8 -8 12 -86 12 -255 0 -222 -2 -244 -18 -256 -23 -17 -1014 -19
-1045 -3 -18 10 -19 24 -19 255 0 210 2 246 16 260 14 14 70 15 529 13 369 -2
517 -6 525 -14z m1092 -8192 c11 -10 14 -263 16 -1312 3 -1446 7 -1357 -64
-1386 -29 -12 -73 -15 -223 -12 -203 3 -219 -1 -246 -52 -13 -25 -15 -99 -15
-495 0 -514 0 -513 -61 -534 -19 -7 -109 -11 -224 -11 -219 0 -235 -5 -255
-81 -7 -27 -10 -194 -9 -489 1 -406 0 -452 -15 -475 -9 -14 -28 -30 -42 -35
-14 -6 -108 -10 -208 -10 -108 0 -196 -5 -215 -11 -55 -19 -61 -45 -61 -259 0
-218 -7 -250 -60 -269 -20 -7 -108 -11 -224 -11 -134 0 -199 -4 -216 -13 -41
-21 -49 -65 -49 -280 -1 -265 17 -247 -243 -247 -309 0 -301 7 -299 -268 1
-113 -3 -198 -9 -219 -20 -57 -44 -63 -265 -63 -219 0 -245 -6 -264 -61 -7
-19 -11 -108 -11 -220 0 -103 -4 -199 -10 -213 -17 -47 -39 -51 -260 -51 -234
0 -251 -5 -269 -72 -6 -21 -11 -123 -11 -226 0 -189 -4 -217 -37 -233 -10 -5
-237 -11 -505 -14 l-488 -5 -27 -28 -28 -27 -5 -213 c-5 -231 -9 -248 -61
-266 -23 -8 -694 -11 -2391 -11 -2048 0 -2363 2 -2394 15 -57 24 -65 57 -63
268 0 111 -3 193 -10 210 -22 56 -36 57 -541 57 -508 0 -508 0 -529 61 -6 19
-11 107 -11 215 0 100 -4 194 -10 208 -5 14 -22 33 -37 43 -25 17 -61 18 -498
18 -437 0 -473 1 -498 18 -15 10 -32 29 -37 43 -6 14 -10 108 -10 208 0 194
-7 238 -44 259 -14 8 -92 14 -233 17 l-213 5 -27 28 -28 27 -5 218 c-3 119 -9
223 -14 231 -21 33 -73 41 -265 41 -118 0 -199 4 -214 11 -41 19 -47 48 -47
242 0 196 -9 250 -43 269 -15 9 -90 15 -234 18 l-213 5 -27 28 -28 27 -5 489
c-5 463 -6 490 -24 510 -32 35 -87 43 -275 39 -203 -3 -223 2 -240 69 -5 22
-8 230 -7 501 3 462 3 463 25 485 20 21 32 22 239 27 119 3 225 9 235 14 37
18 42 46 47 268 7 287 -17 263 258 263 183 0 211 -2 235 -18 16 -10 32 -29 37
-43 6 -15 10 -218 10 -487 0 -349 3 -468 13 -487 26 -52 64 -60 268 -59 212 1
236 -4 256 -61 9 -23 13 -91 12 -200 -2 -226 -3 -218 30 -251 l29 -29 197 0
c199 0 250 -8 271 -41 5 -8 11 -112 14 -231 l5 -218 28 -27 27 -28 234 -5
c129 -3 238 -9 243 -13 4 -5 10 -113 13 -240 3 -128 9 -239 13 -249 18 -35 65
-43 267 -43 214 0 239 6 260 61 6 14 10 113 10 220 0 218 -6 244 -61 263 -20
7 -115 11 -243 11 -116 0 -217 4 -224 9 -11 7 -14 104 -15 507 -2 536 -2 540
-54 563 -15 7 -95 11 -212 11 -199 0 -243 7 -264 44 -8 14 -14 92 -17 233 l-5
213 -28 27 -27 28 -213 5 c-144 3 -219 9 -234 18 -34 19 -43 72 -43 257 0 265
6 270 280 262 194 -6 226 1 252 53 16 32 18 77 18 498 0 519 -1 512 68 532 23
7 106 10 224 8 l188 -3 27 -28 28 -27 5 -213 c3 -141 9 -219 17 -233 21 -37
65 -44 272 -44 108 0 206 -3 219 -6 12 -4 25 -16 28 -28 2 -11 6 -115 7 -231
2 -227 6 -247 55 -267 17 -7 109 -12 240 -12 275 -1 252 22 252 -251 0 -125 4
-214 11 -235 19 -54 50 -60 287 -60 164 0 212 -3 228 -14 18 -13 19 -30 22
-236 1 -153 6 -231 15 -249 20 -41 63 -50 262 -50 152 -1 185 2 215 17 56 28
60 43 60 284 0 183 2 219 16 232 13 14 48 16 229 16 118 0 225 4 239 10 55 21
61 45 63 272 1 124 6 215 13 227 6 11 27 25 48 30 23 7 213 10 497 8 495 -2
490 -2 514 -54 7 -16 11 -181 11 -491 0 -353 3 -473 13 -492 25 -51 65 -60
262 -59 112 0 193 5 215 12 59 20 65 45 65 267 0 214 6 239 61 260 14 6 110
10 214 10 125 0 198 4 215 12 49 22 55 50 55 260 0 215 4 233 60 260 32 16 76
18 475 18 275 0 454 -4 478 -11 67 -18 72 -36 72 -264 0 -177 2 -204 18 -228
10 -16 29 -32 43 -37 14 -6 113 -10 220 -10 218 0 244 6 263 61 7 19 11 108
11 220 0 112 4 198 11 212 21 46 43 52 218 55 194 4 242 -1 279 -33 l27 -23 5
-221 c7 -290 -17 -265 257 -269 144 -2 215 0 235 9 52 21 58 48 58 261 0 215
4 232 60 261 31 15 59 17 226 15 217 -3 235 2 253 69 6 21 11 123 11 226 l0
189 29 29 29 29 472 0 c523 0 528 1 549 62 7 18 11 118 11 242 0 116 5 218 10
226 8 12 47 15 232 18 123 1 235 7 249 13 49 19 54 45 55 281 1 119 4 224 7
232 6 14 35 16 221 16 237 0 283 8 305 56 7 16 11 101 11 240 0 129 4 223 10
235 10 18 23 19 231 19 257 0 281 5 298 67 6 21 11 120 11 221 0 207 7 234 63
251 50 15 443 9 459 -7z m-12094 -76 c10 -6 12 -97 11 -424 -1 -229 2 -424 5
-432 4 -9 0 -24 -8 -35 -13 -18 -28 -19 -185 -20 -108 -1 -174 2 -178 9 -11
17 -5 899 6 905 14 9 334 6 349 -3z m1118 -529 c23 -27 24 -34 24 -193 0 -160
-6 -198 -34 -216 -6 -4 -92 -8 -190 -8 -241 0 -226 -15 -226 220 0 181 3 196
42 216 9 5 94 9 188 9 l172 -1 24 -27z m566 -516 l33 -29 -3 -164 c-4 -206 2
-251 38 -292 l28 -31 209 -3 c123 -1 217 -7 229 -13 43 -22 44 -39 44 -529 0
-457 -1 -471 -20 -490 -19 -19 -33 -20 -233 -20 -168 0 -217 3 -233 14 -18 13
-19 31 -24 244 -4 205 -7 232 -23 250 -30 33 -99 43 -257 38 -157 -5 -237 3
-251 25 -13 21 -12 966 2 990 17 33 46 38 241 38 l188 1 32 -29z m-3317 -593
c11 -11 7 -890 -5 -902 -7 -7 -79 -10 -206 -8 -108 1 -212 -2 -233 -8 -20 -5
-52 -25 -70 -44 l-34 -35 5 -221 c3 -173 2 -223 -9 -231 -8 -7 -75 -11 -180
-11 -138 0 -169 3 -178 15 -8 11 -8 43 -3 104 5 48 7 248 6 443 l-3 355 215 0
c214 1 290 7 290 25 0 6 6 10 13 10 19 0 20 8 22 260 2 124 6 232 9 241 6 13
31 15 181 14 96 0 177 -3 180 -7z m4416 -1012 c34 -15 39 -53 39 -279 0 -160
-3 -226 -12 -235 -15 -15 -485 -17 -508 -2 -13 8 -15 47 -15 248 0 258 2 267
53 275 43 8 425 2 443 -7z m9789 -3366 c6 -8 8 -24 5 -36 -7 -31 -8 -1325 0
-1354 7 -30 -13 -61 -40 -61 -11 0 -88 1 -172 1 -84 1 -155 5 -158 10 -7 12
-8 1437 -1 1449 3 4 84 8 181 7 144 -1 177 -4 185 -16z"/>
<path d="M17520 28387 c-40 -20 -49 -66 -49 -257 -1 -201 7 -243 49 -265 36
-19 414 -22 453 -4 47 21 52 47 52 264 0 217 -5 243 -52 264 -35 16 -420 15
-453 -2z"/>
<path d="M25199 24029 c-17 -4 -41 -17 -53 -28 -21 -21 -21 -27 -24 -504 -2
-322 1 -490 8 -507 21 -50 41 -55 241 -58 116 -2 202 1 228 8 73 19 71 7 71
539 0 274 -4 480 -10 495 -19 51 -43 57 -244 59 -102 1 -199 -1 -217 -4z"/>
<path d="M17532 23475 c-54 -24 -62 -58 -62 -265 0 -281 0 -280 272 -280 95 0
190 5 211 11 66 18 72 38 75 249 5 301 6 300 -278 300 -138 -1 -193 -4 -218
-15z"/>
<path d="M26259 22925 c-42 -23 -49 -61 -49 -262 0 -203 9 -245 55 -263 15 -6
119 -10 231 -10 l206 0 29 29 c20 20 29 40 30 63 0 18 0 113 0 211 0 194 -5
218 -57 237 -14 6 -114 10 -222 10 -152 -1 -203 -4 -223 -15z"/>
<path d="M24640 22387 c-24 -8 -41 -23 -52 -47 -17 -32 -18 -90 -18 -768 0
-801 -1 -787 57 -811 21 -9 90 -11 237 -9 l208 3 23 27 c13 15 26 47 30 70 3
24 5 365 3 758 -3 802 1 758 -75 779 -52 15 -369 13 -413 -2z"/>
<path d="M27373 22389 c-61 -18 -68 -41 -71 -249 -4 -213 3 -251 51 -280 29
-18 51 -20 224 -20 105 0 203 4 217 10 14 5 33 21 43 37 16 24 18 51 18 233 0
234 -5 251 -72 269 -47 13 -366 13 -410 0z"/>
<path d="M23554 20753 c-12 -2 -32 -15 -45 -29 -24 -25 -24 -28 -24 -245 l0
-219 28 -27 27 -28 199 -3 c220 -4 262 4 281 53 6 15 10 116 10 226 0 223 -6
249 -61 268 -30 10 -366 14 -415 4z"/>
<path d="M26827 19655 c-43 -15 -40 -13 -56 -42 -16 -31 -16 -962 0 -997 22
-48 69 -56 301 -56 164 1 213 -2 219 -12 5 -7 9 -246 9 -530 0 -403 -3 -519
-12 -525 -7 -4 -117 -10 -244 -13 -262 -6 -266 -7 -281 -84 -4 -22 -6 -249 -3
-503 l5 -462 23 -23 c22 -22 30 -23 220 -26 127 -2 211 1 235 8 67 20 67 17
67 560 0 313 4 488 10 501 10 18 24 19 260 19 236 0 250 -1 260 -19 6 -12 10
-104 10 -230 0 -115 4 -221 10 -235 20 -53 46 -60 244 -61 208 -1 242 4 274
40 21 25 22 33 22 230 0 112 -4 215 -10 229 -19 50 -49 56 -288 56 -156 0
-221 3 -230 12 -9 9 -12 132 -12 492 0 302 -4 495 -10 518 -6 21 -21 43 -33
50 -15 9 -94 15 -255 18 -192 4 -234 8 -242 20 -6 9 -10 213 -10 502 0 285 -4
497 -10 512 -20 54 -47 61 -250 63 -133 1 -196 -2 -223 -12z"/>
<path d="M18633 18019 c-69 -20 -68 -10 -68 -534 0 -515 1 -523 57 -546 21 -9
98 -13 250 -13 183 -1 220 -3 228 -16 6 -9 10 -214 11 -500 0 -267 4 -496 8
-509 3 -13 19 -34 34 -45 27 -20 42 -21 231 -22 137 -1 210 -5 225 -13 49 -27
51 -46 51 -540 0 -280 4 -470 10 -486 18 -47 59 -55 269 -55 202 0 231 -5 250
-47 16 -36 15 -469 -1 -480 -7 -4 -105 -9 -218 -10 -113 -1 -215 -2 -228 -2
-13 -1 -37 -14 -53 -31 l-30 -30 3 -220 c3 -213 4 -220 26 -242 22 -22 30 -23
255 -28 127 -3 238 -9 245 -13 9 -6 12 -62 13 -220 0 -243 6 -273 59 -299 30
-15 64 -18 220 -18 281 0 279 -2 279 283 1 282 7 277 -312 277 -152 0 -216 3
-225 12 -18 18 -17 477 1 502 12 17 34 19 238 20 255 1 269 5 288 73 6 21 11
123 11 226 l0 189 29 29 29 29 201 0 c121 0 209 -4 224 -11 48 -22 52 -40 52
-249 0 -219 7 -250 58 -271 25 -10 392 -13 1869 -12 2055 1 1877 -6 1898 73 7
25 10 121 8 243 -1 111 1 208 6 215 5 9 64 12 225 12 230 0 272 6 294 44 8 14
14 92 17 233 l5 213 28 27 27 28 218 5 c119 3 223 9 231 14 33 21 41 73 41
259 0 109 -5 197 -11 216 -22 61 -18 61 -557 61 -401 0 -492 2 -507 14 -18 13
-19 28 -17 222 2 324 10 316 -294 312 -220 -3 -225 -5 -251 -65 -19 -47 -18
-381 2 -429 24 -58 53 -64 299 -64 204 0 216 -1 226 -20 7 -13 10 -184 8 -530
-3 -441 -5 -512 -18 -520 -9 -6 -415 -10 -1048 -10 -1137 0 -1078 -3 -1101 61
-6 19 -11 107 -11 214 0 101 -5 195 -10 212 -22 61 54 58 -1359 60 -1416 2
-1328 -1 -1351 59 -6 14 -10 108 -10 209 0 101 4 195 10 209 23 61 -118 57
1881 56 1241 0 1836 3 1861 10 63 18 69 40 69 269 0 112 -5 209 -10 225 -23
60 114 56 -2180 56 -1518 0 -2107 3 -2124 11 -48 22 -52 46 -52 280 0 166 3
221 13 231 10 10 68 13 238 14 244 2 264 6 284 60 6 14 10 111 10 215 0 201 7
236 49 259 13 6 185 10 484 10 314 0 474 4 496 11 55 19 61 45 61 268 0 121
-4 209 -11 224 -24 54 4 52 -787 55 -493 2 -746 -1 -772 -8 -23 -6 -45 -20
-52 -33 -10 -17 -14 -145 -18 -524 -4 -393 -8 -505 -18 -515 -10 -10 -69 -13
-250 -13 -130 0 -245 3 -254 7 -17 7 -18 40 -18 500 0 449 -2 496 -18 528 -11
24 -28 39 -52 47 -42 14 -369 16 -417 2z"/>
<path d="M29023 16929 c-75 -15 -83 -43 -83 -272 0 -211 7 -242 56 -263 39
-17 397 -20 438 -4 55 21 61 46 61 260 0 218 -7 250 -57 271 -32 13 -359 20
-415 8z"/>
<path d="M28435 15818 c-36 -32 -45 -79 -45 -253 0 -174 9 -221 45 -252 25
-22 33 -23 231 -23 229 0 254 6 273 61 6 19 11 107 11 214 0 107 -5 195 -11
214 -19 55 -44 61 -273 61 -198 0 -206 -1 -231 -22z"/>
<path d="M24632 13645 c-56 -24 -62 -55 -62 -299 0 -203 -1 -216 -19 -226 -13
-6 -190 -10 -505 -10 -355 0 -492 -3 -511 -12 -49 -22 -55 -50 -55 -263 0
-214 7 -247 56 -265 34 -13 954 -13 989 0 47 18 55 58 55 289 0 115 3 216 6
225 5 14 35 16 228 16 322 0 315 -6 315 280 0 282 1 280 -279 280 -138 -1
-193 -4 -218 -15z"/>
<path d="M18070 5997 c-47 -24 -50 -46 -48 -275 l3 -214 28 -24 c28 -24 30
-24 242 -24 212 0 214 0 242 24 l28 24 0 226 c0 296 25 270 -258 274 -157 2
-218 -1 -237 -11z"/>
</g>
</svg>
