<?xml version="1.0" standalone="no"?>
<!DOCTYPE svg PUBLIC "-//W3C//DTD SVG 20010904//EN"
 "http://www.w3.org/TR/2001/REC-SVG-20010904/DTD/svg10.dtd">
<svg version="1.0" xmlns="http://www.w3.org/2000/svg"
 width="1024.000000pt" height="1024.000000pt" viewBox="0 0 1024.000000 1024.000000"
 preserveAspectRatio="xMidYMid meet">
<metadata>
Created by potrace 1.14, written by Peter Selinger 2001-2017
</metadata>
<g transform="translate(0.000000,1024.000000) scale(0.100000,-0.100000)"
fill="#000000" stroke="none">
<path d="M6915 8950 c3 -5 8 -10 11 -10 2 0 4 5 4 10 0 6 -5 10 -11 10 -5 0
-7 -4 -4 -10z"/>
<path d="M7030 8940 c0 -23 15 -27 23 -6 3 8 -1 17 -9 20 -9 4 -14 -1 -14 -14z"/>
<path d="M5076 8931 c-4 -6 -24 -11 -44 -12 -36 -1 -36 -1 -7 -8 17 -3 458 -4
980 -1 l950 5 -925 3 c-651 1 -929 5 -937 13 -8 8 -13 8 -17 0z"/>
<path d="M6978 8913 c7 -3 16 -2 19 1 4 3 -2 6 -13 5 -11 0 -14 -3 -6 -6z"/>
<path d="M5012 8876 c-5 -6 -7 -30 -6 -53 1 -24 -2 -43 -7 -43 -16 0 -22 30
-11 55 12 26 -4 48 -18 25 -4 -7 -16 -9 -28 -6 -23 8 -41 -12 -22 -24 7 -4 21
-5 31 -3 17 5 19 -1 19 -70 l0 -75 -172 0 c-271 -1 -293 -6 -54 -12 133 -3
221 -9 223 -15 2 -6 -74 -10 -217 -9 -151 0 -220 -3 -221 -10 0 -6 0 -53 1
-103 1 -75 -1 -92 -13 -88 -10 4 -13 29 -13 97 1 73 -2 92 -14 96 -12 4 -13 2
-4 -9 6 -8 9 -30 7 -49 -3 -32 -4 -81 -2 -98 6 -37 -1 -41 -68 -40 -112 0
-133 -2 -133 -12 0 -5 12 -11 28 -11 20 -1 22 -2 7 -6 -35 -8 -39 -21 -36
-103 1 -60 -1 -80 -11 -80 -10 0 -13 21 -13 78 0 45 -4 77 -10 77 -6 0 -10
-37 -10 -91 l1 -92 -120 2 c-84 1 -121 5 -124 14 -5 17 -22 15 -22 -2 0 -12
-16 -15 -75 -13 -47 1 -79 -3 -87 -11 -16 -16 -28 -15 -28 1 0 7 -9 13 -19 14
-18 2 -17 0 3 -21 13 -14 25 -19 32 -14 14 10 472 9 478 -1 3 -4 -5 -8 -17 -9
-57 -5 -436 -4 -445 2 -15 9 -22 -19 -24 -102 l-2 -77 -5 90 c-5 77 -9 90 -25
93 -13 3 -16 0 -10 -10 13 -19 12 -72 -1 -80 -7 -5 -6 -8 2 -8 6 0 11 -13 11
-30 -1 -25 -4 -28 -15 -18 -11 9 -13 8 -11 -3 2 -8 10 -17 18 -21 11 -5 9 -7
-7 -7 -13 -1 -22 -7 -20 -13 1 -9 -16 -13 -60 -13 -35 0 -63 -3 -63 -8 0 -4
-9 -3 -20 3 -17 9 -20 8 -20 -7 0 -15 7 -18 43 -16 l42 2 -44 -9 c-24 -5 -47
-7 -52 -5 -4 3 -6 -7 -4 -22 9 -68 7 -165 -4 -176 -8 -8 -11 16 -11 93 0 57
-2 101 -5 98 -4 -3 -6 -51 -6 -106 l0 -100 -88 2 c-48 1 -96 -1 -107 -4 -10
-4 27 -7 84 -8 57 0 106 -3 109 -6 3 -3 12 -1 20 5 10 9 13 8 13 -4 0 -13 -18
-15 -121 -14 l-120 2 3 -25 c1 -14 -1 -30 -5 -37 -4 -6 -4 -22 1 -35 4 -12 7
-198 6 -413 -3 -453 -1 -415 -14 -415 -7 0 -10 149 -10 456 1 251 -1 458 -4
462 -7 7 -7 -12 -7 -515 l1 -403 -99 0 c-56 0 -103 -4 -106 -10 -7 -12 -7 -12
109 -14 58 0 91 -5 93 -13 3 -8 -23 -11 -92 -9 -53 1 -99 -1 -104 -4 -4 -3 -7
-47 -7 -97 1 -68 -2 -93 -11 -93 -17 0 -17 57 0 63 10 4 10 6 0 6 -9 1 -13 22
-13 69 0 61 -1 65 -13 42 -8 -16 -11 -37 -6 -57 4 -18 4 -33 0 -33 -8 0 -5
-66 4 -79 3 -5 -38 -11 -90 -13 -67 -2 -98 -7 -104 -17 -6 -9 -11 -10 -15 -2
-23 36 -36 -15 -37 -142 l-1 -87 -95 0 c-53 0 -93 -3 -90 -7 4 -3 50 -6 102
-6 64 0 95 -3 95 -11 0 -6 4 -5 9 3 5 7 14 10 20 7 26 -16 -4 -22 -119 -21
-67 0 -124 -3 -126 -7 -3 -4 0 -8 7 -8 9 0 9 -3 0 -14 -9 -11 -9 -15 0 -18 9
-3 9 -9 -1 -27 -7 -14 -8 -26 -3 -30 14 -10 13 -49 -3 -79 -13 -25 -14 -22
-13 53 1 113 0 125 -11 125 -6 0 -10 -35 -10 -84 0 -113 -2 -116 -62 -116 -27
0 -47 3 -45 8 3 4 -6 8 -19 8 -14 1 -21 -2 -18 -8 4 -6 -4 -5 -16 2 -13 7 -20
7 -16 2 3 -6 -2 -13 -11 -15 -10 -3 7 -6 37 -7 58 -2 151 -7 160 -9 3 -1 0 -5
-7 -9 -7 -4 -56 -7 -110 -6 l-99 1 1 -78 c0 -42 -4 -75 -8 -72 -5 3 -7 27 -5
53 3 30 -1 58 -9 72 -12 21 -13 21 -12 3 1 -11 1 -57 0 -102 l-1 -83 -85 0
c-49 0 -85 4 -85 10 0 5 -9 2 -20 -7 -14 -13 -17 -20 -8 -30 6 -7 7 -13 3 -13
-4 0 -14 8 -21 18 -12 15 -15 15 -24 2 -6 -8 -8 -28 -5 -44 3 -16 5 -48 5 -72
0 -24 3 -44 8 -44 4 0 6 35 5 77 -1 64 1 74 10 58 14 -25 17 -126 4 -142 -6
-9 -6 -13 1 -13 15 0 8 -33 -8 -38 -8 -3 -11 1 -8 10 4 8 2 21 -3 29 -6 10 -9
7 -9 -12 l0 -26 -91 1 c-61 1 -94 -3 -101 -11 -8 -10 11 -13 91 -13 85 0 101
-3 101 -15 0 -12 -4 -14 -16 -7 -9 5 -32 6 -53 2 -20 -3 -57 -5 -83 -3 -27 1
-48 -1 -49 -5 0 -4 -2 -47 -2 -97 -2 -117 -22 -111 -22 7 0 47 -4 90 -9 95 -5
5 -7 1 -3 -9 4 -10 2 -18 -4 -18 -6 0 -9 -7 -5 -15 3 -8 2 -15 -2 -15 -10 0
-2 -69 8 -75 5 -3 3 -18 -3 -34 l-10 -29 -191 3 c-105 2 -207 5 -227 8 -47 6
-73 -8 -45 -25 13 -7 94 -10 245 -9 173 1 222 -2 207 -10 -20 -13 -354 -19
-358 -7 -2 3 -15 4 -30 1 -24 -5 -27 -10 -30 -51 -2 -30 -8 -47 -18 -50 -12
-4 -13 -2 -3 9 7 9 8 20 3 29 -5 8 -5 21 1 31 6 12 4 19 -6 23 -9 3 -19 -3
-25 -14 -6 -11 -7 -20 -2 -20 11 0 8 -71 -2 -89 -4 -6 -4 -17 1 -23 12 -20 12
-32 -1 -43 -20 -18 -45 -16 -56 5 -6 11 -7 20 -2 20 12 0 21 35 13 48 -11 18
-27 -1 -28 -33 -1 -57 0 -56 -58 -51 -30 3 -57 0 -60 -5 -4 -5 28 -9 77 -9 46
0 90 -5 98 -10 10 -7 -16 -9 -82 -7 l-97 2 0 -255 0 -256 26 1 c14 0 28 -5 30
-12 3 -8 -4 -10 -21 -7 -13 2 -27 0 -31 -5 -8 -14 14 -24 28 -13 7 5 24 8 40
6 15 -1 27 2 27 7 0 5 -3 8 -8 6 -4 -1 -8 3 -10 8 -1 6 23 11 55 13 54 2 56 1
34 -12 -13 -7 -32 -11 -43 -8 -14 3 -17 0 -12 -12 7 -19 9 -19 32 -7 9 5 27 5
39 0 17 -6 21 -14 17 -31 -3 -13 -5 -27 -5 -33 6 -74 6 -92 -2 -102 -6 -9 -5
-13 2 -13 7 0 9 -5 5 -11 -4 -7 1 -9 12 -7 11 2 17 11 15 19 -4 14 -4 78 -1
114 l1 20 9 -20 c5 -11 9 -46 9 -77 1 -48 4 -58 19 -58 9 0 704 0 1545 0 1215
0 1527 -3 1527 -13 0 -19 -3071 -18 -3083 1 -7 11 -14 9 -33 -9 -13 -12 -21
-25 -19 -30 6 -9 65 -9 65 0 0 9 2952 5 2971 -3 10 -4 20 -2 24 4 5 8 11 8 20
0 7 -5 23 -9 35 -8 21 3 23 -1 23 -42 0 -25 -3 -52 -6 -60 -9 -24 -3 -80 8
-80 7 0 11 36 10 95 0 57 4 95 10 95 6 0 10 -38 11 -90 1 -50 3 -93 6 -95 2
-2 221 -5 486 -5 293 -1 482 -5 482 -11 0 -10 2 -10 -574 -9 -318 0 -396 -2
-388 -12 8 -10 111 -13 461 -12 l450 0 3 -232 c2 -128 6 -236 10 -240 4 -4 21
-7 38 -6 17 0 28 -3 25 -8 -3 -5 -1 -12 5 -15 6 -4 9 -1 8 7 -2 10 16 13 77
14 l80 2 0 -1032 c0 -567 -3 -1033 -7 -1037 -4 -3 -48 -4 -98 -3 -49 1 -92 -2
-96 -7 -3 -5 -10 -7 -15 -4 -25 16 -29 -74 -29 -746 0 -659 1 -699 18 -699 16
0 17 38 17 651 0 358 2 652 5 654 3 2 6 -290 6 -648 l0 -652 1439 -3 1440 -2
0 904 c0 498 2 900 5 895 3 -5 5 -406 5 -891 -1 -486 1 -889 3 -896 3 -9 38
-12 131 -11 l127 0 0 912 c1 540 4 912 10 914 5 2 9 -27 9 -64 1 -899 6 -1765
11 -1760 3 3 6 418 6 921 l-1 916 27 1 c15 1 59 1 99 2 40 0 70 3 68 7 -2 4
-53 6 -113 5 -80 -1 -109 2 -105 11 3 7 40 11 119 10 117 -1 123 1 114 39 -6
23 -4 885 1 885 17 0 20 -63 19 -473 -1 -241 1 -441 4 -445 7 -6 7 -29 6 501
l0 417 44 0 c34 0 46 -4 49 -18 4 -16 5 -16 6 0 1 13 9 17 34 16 54 -1 65 1
71 17 4 12 0 14 -21 9 -19 -5 -24 -3 -21 7 3 8 10 15 16 15 7 1 15 2 20 3 4 0
7 477 7 1059 -1 677 3 1059 9 1064 6 4 5 12 -3 22 -8 9 -10 16 -5 16 4 0 3 5
-3 11 -7 7 -48 11 -107 10 -61 -1 -96 2 -96 9 0 6 39 10 106 10 58 0 103 4
100 8 -3 4 -50 7 -105 6 l-101 -3 0 592 c1 855 1 847 -7 847 -5 0 -7 -311 -5
-691 2 -516 0 -694 -9 -705 -9 -11 -9 -14 0 -14 7 0 9 -5 5 -11 -4 -7 -9 -8
-13 -1 -3 6 -6 321 -5 701 0 620 -1 691 -15 696 -14 6 -14 8 2 20 17 12 17 13
0 20 -10 4 -57 6 -105 6 l-88 -2 0 30 c0 36 19 51 32 26 8 -14 12 -15 19 -4
15 24 10 31 -21 27 l-30 -5 1 121 c1 207 -1 237 -10 232 -5 -3 -6 -82 -4 -175
3 -115 1 -171 -6 -176 -13 -8 -13 -18 -14 189 l-2 168 -83 3 c-45 1 -85 5 -89
8 -3 4 -11 2 -18 -3 -8 -6 -18 -5 -29 3 -15 11 -1 13 85 12 57 -1 113 1 124 6
28 11 22 12 -81 14 -50 1 -95 4 -101 8 -6 4 -10 70 -10 176 0 122 3 169 11
164 6 -4 6 -1 -1 8 -7 9 -11 25 -9 36 5 22 0 31 -28 53 -16 12 -18 12 -11 1 6
-10 4 -12 -4 -7 -7 5 -58 8 -114 7 -56 0 -108 3 -116 8 -11 7 -8 9 10 9 98 1
217 7 213 12 -3 3 -47 5 -97 5 l-92 0 -1 215 c-1 218 -5 250 -30 250 -8 0 -14
6 -14 13 0 9 -18 12 -64 11 -55 -1 -63 1 -58 15 4 13 2 13 -16 -2 -14 -13 -28
-17 -43 -12 -16 5 -18 9 -8 15 7 5 17 6 21 4 4 -3 8 0 8 6 0 6 -8 9 -18 5 -17
-5 -19 1 -17 67 1 77 -2 98 -15 98 -5 0 -9 -37 -9 -82 0 -121 0 -123 -10 -113
-12 13 -17 77 -8 92 12 19 -3 86 -22 102 -14 12 -14 13 7 8 18 -4 22 -1 22 20
0 24 -3 25 -35 20 -25 -4 -40 -1 -52 11 -13 13 -16 14 -11 2 4 -12 -5 -15 -48
-16 -38 -1 -52 2 -47 10 4 6 -1 5 -10 -3 -19 -15 -23 -1 -5 17 8 8 8 12 1 12
-12 0 -10 110 2 130 4 7 1 16 -6 21 -12 8 -12 11 1 20 13 9 12 10 -3 5 -10 -3
-21 -6 -23 -6 -3 0 -2 -5 2 -12 12 -19 8 -178 -5 -191 -8 -8 -11 13 -11 83 0
52 -4 101 -8 108 -6 9 -34 12 -96 11 -48 -1 -90 1 -93 5 -4 3 39 6 95 6 61 0
102 4 102 10 0 12 -6 12 -120 12 l-86 0 1 89 c1 49 -3 95 -8 102 -6 8 -7 7 -3
-5 3 -10 2 -18 -2 -18 -5 0 -6 -24 -2 -52 3 -29 5 -60 4 -68 0 -8 -2 -23 -2
-33 -3 -32 -23 -6 -22 27 1 17 2 61 1 97 l-1 67 -230 -2 c-160 -1 -234 2 -245
11 -13 8 39 11 222 12 131 0 239 3 240 7 2 4 -87 6 -196 6 -237 -1 -231 -3
-234 107 -1 39 2 71 7 71 14 0 -2 14 -19 16 -8 1 -15 -3 -15 -9 -1 -7 -6 -5
-13 4 -11 14 -112 15 -975 15 -664 0 -965 -3 -970 -10z m1968 -40 c0 -2 -7 -6
-15 -10 -8 -3 -15 -1 -15 4 0 6 7 10 15 10 8 0 15 -2 15 -4z m-5 -90 c0 -42
-4 -62 -11 -59 -16 6 -16 123 0 123 8 0 12 -21 11 -64z m-1968 -21 c0 -44 -11
-54 -13 -12 -1 12 -5 30 -9 40 -5 12 -3 17 8 17 11 0 15 -11 14 -45z m3 -64
c0 -6 -4 -13 -10 -16 -5 -3 -10 1 -10 9 0 9 5 16 10 16 6 0 10 -4 10 -9z m36
-58 c-10 -10 -19 5 -10 18 6 11 8 11 12 0 2 -7 1 -15 -2 -18z m39 17 c3 -5 1
-10 -4 -10 -6 0 -11 5 -11 10 0 6 2 10 4 10 3 0 8 -4 11 -10z m-43 -80 c-3
-29 0 -40 9 -40 10 0 11 -2 2 -8 -6 -4 -13 -28 -16 -52 -2 -25 -4 -3 -5 48 -1
50 1 92 6 92 4 0 6 -18 4 -40z m1887 -144 c-9 -8 -10 -5 -5 14 3 14 7 59 8
100 l2 75 3 -89 c3 -60 0 -93 -8 -100z m-2424 15 c-16 -4 -55 -4 -85 -1 -50 7
-48 7 30 8 54 0 74 -3 55 -7z m115 -31 c0 -5 -2 -10 -4 -10 -3 0 -8 5 -11 10
-3 6 -1 10 4 10 6 0 11 -4 11 -10z m360 -1 c0 -3 -79 -5 -175 -5 -96 0 -175 3
-175 7 0 3 79 5 175 5 96 -1 175 -3 175 -7z m2014 -1 c-3 -4 -9 -8 -15 -8 -5
0 -9 4 -9 8 0 5 7 9 15 9 8 0 12 -4 9 -9z m386 2 c0 -3 -73 -6 -162 -6 -90 -1
-170 -4 -179 -8 -10 -4 -18 -2 -22 6 -4 11 30 14 179 14 101 0 184 -2 184 -6z
m-3095 -170 c3 -5 1 -10 -4 -10 -6 0 -11 5 -11 10 0 6 2 10 4 10 3 0 8 -4 11
-10z m3135 -10 c0 -11 -2 -20 -4 -20 -2 0 -6 9 -9 20 -3 11 -1 20 4 20 5 0 9
-9 9 -20z m448 -34 c-3 -11 -128 -14 -134 -4 -3 4 -11 5 -18 2 -8 -3 -17 -1
-20 5 -5 7 23 10 84 8 49 -1 89 -6 88 -11z m-420 -41 c-3 -3 -9 2 -12 12 -6
14 -5 15 5 6 7 -7 10 -15 7 -18z m-3648 -200 c-11 -13 -50 -9 -50 5 0 9 40 18
53 12 4 -2 3 -10 -3 -17z m-60 10 c0 -2 -9 -9 -20 -15 -16 -9 -20 -8 -20 5 0
8 9 15 20 15 11 0 20 -2 20 -5z m4200 -5 c0 -5 -5 -10 -11 -10 -5 0 -7 5 -4
10 3 6 8 10 11 10 2 0 4 -4 4 -10z m50 0 c0 -5 -7 -10 -16 -10 -8 0 -12 5 -9
10 3 6 10 10 16 10 5 0 9 -4 9 -10z m165 0 c4 -6 -16 -8 -56 -5 -82 7 -88 15
-11 15 33 0 64 -4 67 -10z m28 -22 c-8 -14 -9 -42 -11 -265 -1 -79 -5 -143 -9
-143 -10 0 -8 373 1 389 4 6 1 11 -6 11 -9 0 -9 3 2 10 21 14 33 12 23 -2z
m-289 -17 c-8 -9 -44 -11 -44 -3 0 4 11 8 25 8 13 0 22 -2 19 -5z m-1881 -208
c-7 -2 -19 -2 -25 0 -7 3 -2 5 12 5 14 0 19 -2 13 -5z m415 0 c-10 -2 -26 -2
-35 0 -10 3 -2 5 17 5 19 0 27 -2 18 -5z m65 -46 c3 -8 0 -14 -7 -14 -7 0 -13
6 -13 14 0 7 4 13 8 13 4 0 9 -6 12 -13z m-6 -33 c-3 -4 -2 -15 4 -26 5 -10 7
-24 3 -30 -10 -15 -12 -218 -3 -218 4 0 5 -12 2 -27 -3 -16 -6 -33 -7 -40 -1
-7 -4 -15 -7 -18 -5 -4 -5 354 0 363 0 1 4 2 8 2 3 0 3 -3 0 -6z m-512 -44 c1
-16 -1 -30 -5 -30 -4 0 -7 16 -8 36 -2 44 9 39 13 -6z m-2 -108 c1 -34 -1 -62
-5 -62 -5 0 -8 30 -8 67 0 82 9 78 13 -5z m2207 28 c0 -5 -2 -10 -4 -10 -3 0
-8 5 -11 10 -3 6 -1 10 4 10 6 0 11 -4 11 -10z m-33 -66 c-9 -9 -68 -11 -73
-2 -3 4 14 8 37 8 23 0 40 -3 36 -6z m273 -18 c0 -11 -19 -15 -25 -6 -3 5 1
10 9 10 9 0 16 -2 16 -4z m-2444 -41 c1 -8 -2 -15 -7 -15 -5 0 -9 10 -9 22 0
23 12 17 16 -7z m2444 -172 c0 -102 -3 -184 -6 -181 -3 3 -5 68 -5 144 0 195
0 224 6 224 3 0 5 -84 5 -187z m-270 157 c0 -5 -4 -10 -10 -10 -5 0 -10 5 -10
10 0 6 5 10 10 10 6 0 10 -4 10 -10z m-2 -75 c0 -30 -3 -55 -8 -55 -4 0 -6 21
-5 48 4 61 4 62 9 62 1 0 3 -25 4 -55z m-2173 15 c3 -5 1 -10 -4 -10 -6 0 -11
5 -11 10 0 6 2 10 4 10 3 0 8 -4 11 -10z m1 -45 c1 -8 -2 -15 -7 -15 -5 0 -9
10 -9 22 0 23 12 17 16 -7z m514 -25 c0 -5 -2 -10 -4 -10 -3 0 -8 5 -11 10 -3
6 -1 10 4 10 6 0 11 -4 11 -10z m1658 -80 c1 -39 -2 -68 -7 -66 -4 3 -6 31 -5
63 3 71 3 73 7 73 2 0 4 -32 5 -70z m-1731 44 c-7 -8 -368 -7 -375 1 -3 3 82
5 188 5 106 0 191 -3 187 -6z m33 2 c0 -3 -4 -8 -10 -11 -5 -3 -10 -1 -10 4 0
6 5 11 10 11 6 0 10 -2 10 -4z m1700 -146 c0 -5 -5 -10 -11 -10 -5 0 -7 5 -4
10 3 6 8 10 11 10 2 0 4 -4 4 -10z m33 -101 c-8 -8 -16 -8 -30 0 -16 9 -14 10
12 11 21 0 26 -3 18 -11z m202 1 c-3 -5 -10 -10 -16 -10 -5 0 -9 5 -9 10 0 6
7 10 16 10 8 0 12 -4 9 -10z m5 -44 c0 -3 -4 -8 -10 -11 -5 -3 -10 -1 -10 4 0
6 5 11 10 11 6 0 10 -2 10 -4z m-4 -210 c-1 -74 -3 -137 -7 -140 -3 -3 -5 59
-5 138 1 79 4 142 7 140 3 -2 6 -64 5 -138z m-5061 44 c-3 -5 -10 -10 -16 -10
-5 0 -9 5 -9 10 0 6 7 10 16 10 8 0 12 -4 9 -10z m5345 -175 c0 -14 -6 -25
-12 -25 -7 0 -13 11 -13 25 0 14 6 25 13 25 6 0 12 -11 12 -25z m-5836 -96
c-3 -5 0 -9 7 -9 8 0 8 -4 -1 -15 -7 -8 -8 -15 -3 -15 5 0 8 -28 7 -62 -2 -79
-2 -78 -13 -78 -6 0 -10 50 -9 118 0 80 3 110 9 94 5 -13 7 -28 3 -33z m243
37 c-2 -7 -48 -11 -120 -12 -88 0 -114 2 -107 11 13 15 232 16 227 1z m5593
-1 c0 -8 -4 -15 -10 -15 -5 0 -10 7 -10 15 0 8 5 15 10 15 6 0 10 -7 10 -15z
m180 -1 c0 -12 -56 -14 -75 -3 -9 6 -20 5 -50 -1 -21 -5 -46 0 -41 9 9 13 166
10 166 -5z m-322 -41 c-10 -2 -28 -2 -40 0 -13 2 -5 4 17 4 22 1 32 -1 23 -4z
m99 1 c-3 -3 -12 -4 -19 -1 -8 3 -5 6 6 6 11 1 17 -2 13 -5z m-1 -103 c-1 -64
-12 -75 -13 -13 -1 42 3 62 11 62 1 0 2 -22 2 -49z m0 -120 c-1 -68 -12 -73
-14 -6 0 30 2 55 7 55 4 0 7 -22 7 -49z m-1 -280 c0 -116 -3 -213 -7 -216 -3
-3 -6 91 -6 210 0 118 3 215 6 215 4 0 7 -94 7 -209z m-6265 -115 c0 -2 -3
-11 -6 -20 -9 -23 -24 -20 -24 4 0 11 7 20 15 20 8 0 15 -2 15 -4z m-90 -63
c0 -5 -22 -8 -49 -8 -27 0 -47 3 -44 8 2 4 24 7 49 7 24 0 44 -3 44 -7z m98 1
c-10 -9 -58 -12 -58 -3 0 5 14 9 32 9 17 0 29 -3 26 -6z m6258 -103 c-1 -68
-12 -73 -14 -6 0 30 2 55 7 55 4 0 7 -22 7 -49z m0 -120 c-1 -68 -12 -73 -14
-6 0 30 2 55 7 55 4 0 7 -22 7 -49z m-6506 -21 c0 -5 -7 -10 -15 -10 -8 0 -15
5 -15 10 0 6 7 10 15 10 8 0 15 -4 15 -10z m6506 -79 c-2 -43 -12 -46 -14 -6
-2 19 1 35 7 35 5 0 8 -13 7 -29z m0 -100 c-1 -68 -12 -73 -14 -6 0 30 2 55 7
55 4 0 7 -22 7 -49z m-1 -126 c-2 -75 -12 -79 -13 -5 0 33 3 60 7 60 4 0 7
-25 6 -55z m-7235 -80 c0 -8 -4 -15 -10 -15 -5 0 -7 7 -4 15 4 8 8 15 10 15 2
0 4 -7 4 -15z m10 -61 c0 -8 -5 -12 -10 -9 -6 4 -8 11 -5 16 9 14 15 11 15 -7z
m-5 -34 c-3 -5 -12 -7 -20 -3 -21 7 -19 13 6 13 11 0 18 -4 14 -10z m7329 -38
c3 -5 -1 -9 -9 -9 -8 0 -15 4 -15 9 0 4 4 8 9 8 6 0 12 -4 15 -8z m86 0 c0 -5
-7 -9 -15 -9 -8 0 -15 4 -15 9 0 4 7 8 15 8 8 0 15 -4 15 -8z m54 -111 c1 -32
-1 -68 -5 -78 -4 -10 -8 20 -8 66 -1 95 10 105 13 12z m0 -191 c-1 -50 -4 -93
-8 -97 -3 -3 -6 37 -6 90 0 54 3 97 8 97 4 0 7 -41 6 -90z m1 -142 c-8 -46
-15 -48 -15 -5 0 21 5 37 10 37 6 0 8 -13 5 -32z m-7483 -50 c-7 -7 -12 -8
-12 -2 0 14 12 26 19 19 2 -3 -1 -11 -7 -17z m7482 -88 c-1 -50 -4 -94 -8 -97
-3 -4 -6 37 -6 90 0 54 3 97 8 97 4 0 7 -41 6 -90z m0 -200 c-1 -50 -4 -93 -8
-97 -3 -3 -6 37 -6 90 0 54 3 97 8 97 4 0 7 -41 6 -90z m-4334 60 c0 -5 -5
-10 -11 -10 -5 0 -7 5 -4 10 3 6 8 10 11 10 2 0 4 -4 4 -10z m4335 -202 c-8
-46 -15 -48 -15 -5 0 21 5 37 10 37 6 0 8 -13 5 -32z m-1 -138 c-1 -50 -4 -94
-8 -97 -3 -4 -6 37 -6 90 0 54 3 97 8 97 4 0 7 -41 6 -90z m-3375 58 c1 -7 3
-89 4 -182 1 -129 -1 -170 -11 -174 -9 -3 -11 6 -6 35 9 56 11 174 3 179 -8 4
-10 135 -2 147 6 10 9 9 12 -5z m3375 -258 c-1 -50 -4 -93 -8 -97 -3 -3 -6 37
-6 90 0 54 3 97 8 97 4 0 7 -41 6 -90z m-3373 -128 c-7 -14 -6 -25 4 -39 12
-17 21 -20 47 -14 18 3 42 5 53 5 11 -1 39 -2 63 -3 82 -2 32 -19 -61 -20 -78
-1 -96 1 -109 16 -20 23 -21 73 -1 73 10 0 11 -5 4 -18z m3374 -14 c-8 -46
-15 -48 -15 -5 0 21 5 37 10 37 6 0 8 -13 5 -32z m-3135 -48 c0 -5 -2 -10 -4
-10 -3 0 -8 5 -11 10 -3 6 -1 10 4 10 6 0 11 -4 11 -10z m3134 -90 c-1 -50 -4
-94 -8 -97 -3 -4 -6 37 -6 90 0 54 3 97 8 97 4 0 7 -41 6 -90z m-3129 -967 c0
-655 -4 -1007 -10 -1005 -10 2 -20 1983 -10 2010 3 7 8 11 12 9 5 -3 8 -459 8
-1014z m3129 767 c-1 -50 -4 -93 -8 -97 -3 -3 -6 37 -6 90 0 54 3 97 8 97 4 0
7 -41 6 -90z m1 -142 c-8 -46 -15 -48 -15 -5 0 21 5 37 10 37 6 0 8 -13 5 -32z
m0 -98 c0 -27 -3 -50 -7 -50 -5 0 -8 23 -8 50 0 28 4 50 8 50 4 0 8 -22 7 -50z
m-52 -147 c-7 -2 -19 -2 -25 0 -7 3 -2 5 12 5 14 0 19 -2 13 -5z m52 -2 c3 -5
1 -12 -5 -16 -5 -3 -10 1 -10 9 0 18 6 21 15 7z m205 -37 c0 -8 -25 -12 -79
-12 -55 0 -78 4 -75 12 6 16 154 16 154 0z m-445 -4 c-3 -5 -11 -10 -16 -10
-6 0 -7 5 -4 10 3 6 11 10 16 10 6 0 7 -4 4 -10z m275 0 c0 -5 -2 -10 -4 -10
-3 0 -8 5 -11 10 -3 6 -1 10 4 10 6 0 11 -4 11 -10z m-2890 -40 c0 -5 -2 -10
-4 -10 -3 0 -8 5 -11 10 -3 6 -1 10 4 10 6 0 11 -4 11 -10z m2614 -60 c-6 -6
-10 -2 -11 12 -2 16 1 18 10 9 7 -7 8 -14 1 -21z m2 -69 c-1 -68 -12 -73 -14
-6 0 30 2 55 7 55 4 0 7 -22 7 -49z m0 -100 c-2 -43 -12 -46 -14 -6 -2 19 1
35 7 35 5 0 8 -13 7 -29z m0 -100 c-1 -68 -12 -73 -14 -6 0 30 2 55 7 55 4 0
7 -22 7 -49z m0 -120 c-1 -68 -12 -73 -14 -6 0 30 2 55 7 55 4 0 7 -22 7 -49z
m0 -100 c-2 -43 -12 -46 -14 -6 -2 19 1 35 7 35 5 0 8 -13 7 -29z m0 -100 c-1
-68 -12 -73 -14 -6 0 30 2 55 7 55 4 0 7 -22 7 -49z m0 -130 c-1 -33 -4 -62
-7 -66 -4 -3 -7 24 -7 60 0 36 3 65 7 65 4 0 7 -27 7 -59z m-29 -107 c-3 -3
-12 -4 -19 -1 -8 3 -5 6 6 6 11 1 17 -2 13 -5z m-216 -71 c-12 -20 -14 -14 -5
12 4 9 9 14 11 11 3 -2 0 -13 -6 -23z m-2371 -388 c0 -8 -4 -15 -10 -15 -5 0
-7 7 -4 15 4 8 8 15 10 15 2 0 4 -7 4 -15z m-342 -20 c8 -3 19 0 24 7 6 10 8
9 8 -3 0 -14 -13 -17 -80 -17 -44 -1 -80 3 -80 8 0 4 4 10 10 12 15 5 100 0
118 -7z m-172 -32 c-4 -25 -26 -28 -26 -4 0 12 6 21 14 21 8 0 13 -8 12 -17z
m313 -14 c-7 -4 -17 -5 -22 -2 -5 3 -3 9 4 14 7 4 17 5 22 2 5 -3 3 -9 -4 -14z
m140 4 c-9 -10 -15 -11 -17 -4 -2 6 -9 8 -15 4 -16 -10 -47 -11 -47 -2 0 4 12
9 28 11 67 8 64 8 51 -9z"/>
<path d="M7079 8787 c-9 -14 -3 -47 7 -47 8 0 14 2 14 4 0 2 3 11 6 19 4 11
-22 34 -27 24z"/>
<path d="M4188 8373 c-6 -22 0 -43 13 -43 11 0 12 31 0 48 -6 11 -9 10 -13 -5z"/>
<path d="M3890 8219 c0 -5 5 -7 10 -4 6 3 10 8 10 11 0 2 -4 4 -10 4 -5 0 -10
-5 -10 -11z"/>
<path d="M7979 8123 c-6 -33 -5 -53 2 -53 4 0 7 14 7 30 -1 28 -6 40 -9 23z"/>
<path d="M3606 7989 c-21 -21 -15 -25 15 -9 14 8 19 7 19 -1 0 -7 2 -10 5 -7
7 6 -5 38 -14 37 -3 0 -15 -9 -25 -20z"/>
<path d="M8170 7960 c0 -5 5 -10 11 -10 5 0 7 5 4 10 -3 6 -8 10 -11 10 -2 0
-4 -4 -4 -10z"/>
<path d="M8536 7491 c-4 -5 -2 -12 3 -15 5 -4 12 -2 15 3 4 5 2 12 -3 15 -5 4
-12 2 -15 -3z"/>
<path d="M2927 6585 c3 -8 9 -12 14 -9 12 7 11 11 -5 17 -10 4 -13 1 -9 -8z"/>
<path d="M9180 5030 c0 -5 5 -10 11 -10 5 0 7 5 4 10 -3 6 -8 10 -11 10 -2 0
-4 -4 -4 -10z"/>
<path d="M1114 5015 c-4 -9 -4 -19 0 -22 3 -3 1 -12 -5 -20 -6 -7 -8 -13 -3
-13 5 0 9 -81 9 -180 0 -108 -4 -180 -9 -180 -6 0 -5 -5 2 -12 8 -8 9 -15 1
-25 -9 -9 -8 -13 0 -13 7 0 10 -4 7 -9 -4 -5 3 -7 14 -4 11 3 17 10 14 15 -4
6 -6 113 -6 239 0 208 -7 270 -24 224z"/>
<path d="M9141 5016 c-7 -9 -8 -17 -2 -20 13 -8 13 -2166 0 -2182 -12 -15 -1
-44 14 -38 9 3 11 278 9 1126 -1 617 -4 1123 -6 1125 -2 2 -9 -3 -15 -11z"/>
<path d="M9187 4974 c6 -16 19 -18 27 -5 3 5 -3 11 -13 14 -14 3 -18 1 -14 -9z"/>
<path d="M1107 4509 c7 -7 15 -10 18 -7 3 3 -2 9 -12 12 -14 6 -15 5 -6 -5z"/>
<path d="M1272 4440 c1 -37 13 -47 27 -23 6 13 5 24 -4 36 -18 25 -24 21 -23
-13z"/>
<path d="M5640 1480 c0 -5 7 -10 15 -10 8 0 15 5 15 10 0 6 -7 10 -15 10 -8 0
-15 -4 -15 -10z"/>
</g>
</svg>
